<?xml version="1.0" standalone="no"?>
<!DOCTYPE svg PUBLIC "-//W3C//DTD SVG 20010904//EN"
 "http://www.w3.org/TR/2001/REC-SVG-20010904/DTD/svg10.dtd">
<svg version="1.0" xmlns="http://www.w3.org/2000/svg"
 width="512.000000pt" height="512.000000pt" viewBox="0 0 512.000000 512.000000"
 preserveAspectRatio="xMidYMid meet">

<g transform="translate(0.000000,512.000000) scale(0.100000,-0.100000)"
fill="#000000" stroke="none">
<path d="M2340 4709 c-667 -69 -1274 -453 -1626 -1030 -414 -678 -416 -1558
-5 -2233 l42 -69 -155 -465 c-86 -256 -154 -467 -153 -469 2 -1 213 67 469
153 l465 155 69 -42 c114 -70 302 -156 432 -199 1028 -337 2137 127 2617 1095
111 225 189 498 215 754 51 521 -103 1069 -421 1493 -456 608 -1196 934 -1949
857z m408 -320 c460 -50 885 -267 1185 -606 560 -630 620 -1552 148 -2254
-396 -589 -1118 -900 -1817 -784 -263 43 -576 173 -766 318 -24 18 -49 36 -56
41 -7 4 -108 -24 -243 -69 -127 -43 -233 -75 -236 -72 -3 3 29 109 71 235 l77
229 -73 109 c-201 301 -299 597 -315 954 -27 627 283 1239 806 1591 361 243
800 354 1219 308z"/>
<path d="M1973 3970 c-22 -5 -61 -19 -85 -31 -52 -26 -425 -392 -473 -464 -77
-116 -82 -228 -22 -467 45 -174 84 -281 162 -443 305 -631 895 -1072 1598
-1195 123 -22 131 -22 194 -6 37 9 87 28 112 42 25 15 139 119 253 233 238
237 261 271 261 391 0 116 -26 156 -236 368 -221 223 -243 237 -372 237 -125
0 -161 -18 -295 -150 -62 -62 -114 -105 -126 -105 -25 0 -161 77 -222 126 -73
58 -149 133 -204 202 -60 75 -138 208 -138 236 0 12 43 64 104 125 134 138
151 168 151 286 0 137 -15 162 -237 382 -146 145 -194 187 -238 206 -65 29
-129 38 -187 27z m208 -459 l144 -138 -99 -104 c-132 -138 -161 -197 -161
-324 0 -85 2 -95 42 -177 131 -273 384 -528 662 -666 71 -35 80 -37 170 -37
134 0 183 25 313 159 88 91 98 99 114 85 28 -22 274 -273 274 -279 0 -3 -81
-86 -179 -184 l-179 -178 -44 7 c-663 103 -1243 585 -1475 1225 -33 92 -75
250 -88 337 l-7 42 177 186 c98 102 181 185 185 185 4 0 72 -62 151 -139z"/>
</g>
</svg>
